<svg width="48" height="48" viewBox="0 0 48 48" fill="none" xmlns="http://www.w3.org/2000/svg">
<path d="M44 19.6364C44 30.4812 32.4722 39.6818 24 48C15.5278 39.6818 4 30.4812 4 19.6364C4 8.7915 12.9543 0 24 0C35.0457 0 44 8.7915 44 19.6364Z" fill="#103E75"/>
<path d="M25.8808 23.0357C25.8808 24.0937 25.8808 25.1518 25.8808 26.2232C25.8808 26.4643 25.8808 26.7187 25.8272 26.9598C25.6398 27.7098 25.0508 28.125 24.1806 28.1384C23.0561 28.1518 22.4403 27.817 22.2128 27.0268C22.1458 26.8125 22.1458 26.5848 22.1458 26.3705C22.1324 25.3929 22.1324 24.4018 22.1458 23.4241C22.1458 23.1161 22.0789 22.9687 21.7442 22.9687C20.8741 22.9687 20.2315 22.0848 20.2583 21.2411C20.2984 19.7411 20.2583 18.2545 20.2717 16.7545C20.2717 15.6429 20.9008 15.0268 22.0253 15.0134C23.364 15 24.7027 15.0402 26.0414 15C27.1257 14.9732 27.8219 15.8571 27.7951 16.7679C27.7415 18.2143 27.7415 19.6741 27.7951 21.1205C27.8353 22.0848 27.2061 23.0357 26.095 22.9955C26.028 22.9821 25.9745 23.0089 25.8808 23.0357Z" fill="white"/>
<path d="M16.0547 14.5312C16.7509 14.5312 17.4336 14.5312 18.1297 14.5312C18.6116 14.5312 19.0534 14.6651 19.3881 15.0535C19.5353 15.2276 19.6023 15.3883 19.5353 15.6562C19.4148 16.0847 19.3613 16.5267 19.3479 16.9687C19.3211 18.1204 19.3345 19.2856 19.3345 20.4508C19.3345 21.241 19.1873 21.4687 18.4242 21.549C17.9958 21.5892 17.9155 21.7499 17.9289 22.1249C17.9557 23.0624 17.9423 23.9999 17.9289 24.9374C17.9155 26.1696 17.3399 26.7454 16.1217 26.7454C15.7468 26.7454 15.3586 26.7053 15.0239 26.5579C14.4082 26.2901 14.1672 25.741 14.1672 25.0847C14.1672 24.1205 14.1672 23.1696 14.1672 22.2053C14.1672 21.6829 14.1672 21.6829 13.6183 21.5624C12.8419 21.4017 12.3332 20.8794 12.3198 20.0892C12.2796 18.7499 12.2662 17.4106 12.3064 16.0847C12.3332 15.1606 12.9758 14.5847 13.9262 14.5579C14.6223 14.5044 15.3318 14.5178 16.0547 14.5312Z" fill="white"/>
<path d="M31.9718 14.531C32.6411 14.531 33.3105 14.5176 33.9798 14.531C35.1177 14.5578 35.6933 15.1337 35.7201 16.2721C35.7335 17.4239 35.7335 18.589 35.7201 19.7542C35.7067 20.8926 35.2917 21.3748 34.1806 21.5489C33.846 21.6024 33.8593 21.7765 33.8593 22.0042C33.8593 22.9149 33.8593 23.8256 33.8593 24.7498C33.8593 24.9908 33.8326 25.2319 33.8192 25.4864C33.8058 25.5801 33.7924 25.6605 33.7522 25.7408C33.4845 26.464 32.8018 26.7989 31.6907 26.7185C30.8607 26.6649 30.2984 26.2364 30.1646 25.4864C30.0976 25.1114 30.111 24.7364 30.111 24.3614C30.0976 23.598 30.0976 22.848 30.111 22.0846C30.1244 21.7497 30.0842 21.5087 29.6559 21.5489C29.5354 21.5623 29.4015 21.4953 29.2676 21.4551C28.7589 21.2676 28.7054 21.1873 28.7054 20.6248C28.7054 19.3926 28.7188 18.1739 28.7054 16.9551C28.692 16.5399 28.6518 16.1114 28.5314 15.7096C28.451 15.4283 28.4912 15.2408 28.6786 15.0533C29.0133 14.6917 29.4417 14.531 29.937 14.531C30.5929 14.5176 31.2891 14.5176 31.9718 14.531Z" fill="white"/>
<path d="M25.4926 29.0357C27.9156 28.9554 31.0347 28.6607 34.0602 27.7232C35.1043 27.4018 36.1217 26.9866 37.0187 26.3438C38.4109 25.3393 38.3975 24.3349 36.9919 23.3304C36.7777 23.1697 36.5367 23.0357 36.3225 22.8884C36.1084 22.7411 36.0548 22.5402 36.1753 22.2991C36.3092 22.0313 36.5367 21.9643 36.7911 22.0982C37.6612 22.5536 38.4243 23.1161 38.8259 24.0402C39.1338 24.75 39.0133 25.4331 38.5983 26.0759C38.1298 26.7857 37.447 27.2411 36.7241 27.6429C35.1177 28.5134 33.3774 28.9822 31.6104 29.317C28.1565 29.9599 24.676 30.1474 21.1552 29.9063C18.5046 29.7188 15.8808 29.3572 13.3507 28.5268C12.3333 28.192 11.3426 27.8036 10.4725 27.1474C10.1512 26.9063 9.84329 26.6384 9.60233 26.3304C8.79911 25.3393 8.8125 24.2411 9.66926 23.3036C10.0709 22.8616 10.5796 22.5268 11.0749 22.1786C11.4096 21.9509 11.6907 22.0179 11.8245 22.2724C11.9584 22.5268 11.8513 22.7545 11.5434 22.9956C11.1552 23.2902 10.7402 23.5581 10.4055 23.9063C9.80313 24.5491 9.80313 25.1786 10.4189 25.7947C10.8205 26.1965 11.3158 26.5313 11.8112 26.8125C13.5113 27.7634 15.3721 28.192 17.273 28.5134C19.7362 28.9286 22.2395 29.1027 25.4926 29.0357Z" fill="white"/>
<path d="M26.1352 11.9464C26.1485 13.0982 25.1713 14.0758 24.0066 14.0624C22.8821 14.0624 21.9183 13.1249 21.8781 11.9999C21.838 10.8883 22.842 9.85708 23.9799 9.84369C25.1178 9.8303 26.1218 10.808 26.1352 11.9464Z" fill="white"/>
<path d="M17.9023 11.7318C17.8889 12.7765 17.0589 13.5934 16.0147 13.58C14.9705 13.5666 14.1539 12.7363 14.1673 11.705C14.1807 10.6604 15.0241 9.84342 16.0549 9.85682C17.099 9.85682 17.9156 10.6872 17.9023 11.7318Z" fill="white"/>
<path d="M33.8325 11.6916C33.8459 12.7362 33.0427 13.5666 31.9851 13.58C30.9409 13.5934 30.1109 12.7764 30.0976 11.7452C30.0842 10.7139 30.9142 9.87017 31.9449 9.85678C32.9891 9.84339 33.8191 10.647 33.8325 11.6916Z" fill="white"/>
<path d="M29.1434 7.4233C29.1549 8.32507 28.4637 9.04186 27.5537 9.05342C26.6551 9.06498 25.9409 8.35975 25.9294 7.46954C25.9179 6.57933 26.6321 5.85098 27.5191 5.83942C28.4177 5.82786 29.1319 6.52153 29.1434 7.4233Z" fill="white"/>
<path d="M25.607 4.20902C25.6185 5.11079 24.9273 5.82758 24.0173 5.83915C23.1187 5.85071 22.4045 5.14548 22.393 4.25527C22.3815 3.36506 23.0957 2.6367 23.9827 2.62514C24.8812 2.61358 25.5955 3.30725 25.607 4.20902Z" fill="white"/>
<path d="M21.8769 7.4233C21.8884 8.32507 21.1972 9.04186 20.2871 9.05342C19.3886 9.06498 18.6744 8.35975 18.6629 7.46954C18.6513 6.57933 19.3656 5.85098 20.2526 5.83942C21.1511 5.82786 21.8654 6.52153 21.8769 7.4233Z" fill="white"/>
</svg>
